<svg version="1.2" xmlns="http://www.w3.org/2000/svg" viewBox="0 0 1024 1024" width="1024" height="1024"><style>.a{fill:#4664ab}.b{fill:#6690c1}.c{fill:#ae6376}</style><path class="a" d="m443.1 935.2c-4.6-8.2-17.5-30.6-28.5-49.8-11-19.1-20.7-36.1-21.6-37.7-3.9-7.1-7-12.4-7.3-12.4-0.4 0-5.5 8.7-39.9 68-11.5 19.8-21.5 37-22.4 38.5-0.9 1.4-2.1 3.5-2.6 4.7l-1.1 2.1h-28.1-28.1l-4.6-8c-16.6-28.6-23.6-40.8-23.6-41.2 0-0.1 1.1-2.1 2.5-4.4 1.4-2.3 10.1-17.1 19.4-33.1 9.2-15.8 25-42.9 34.9-60.1 10-17.2 18.8-32.2 19.4-33.3 2.3-3.9 3.7-6.3 10.4-17.8 3.6-6.2 6.8-11.7 6.9-12.2 0.4-0.7-1.9-4.8-16.8-30.8-4.9-8.4-9.4-16.3-10.1-17.5-1.8-3.3-23.2-40.4-31.9-55.6l-7.5-12.9 14.8-25.8c8.2-14.2 20.8-36.2 28-48.8l13.2-23.1 1.6 2.6c0.9 1.4 8.4 14.3 16.7 28.8 8.4 14.5 20.5 35.6 27.1 46.9 6.5 11.3 32.8 56.9 58.5 101.5 25.8 44.6 55.3 95.9 65.8 114 10.5 18 21.3 36.8 24.1 41.6 2.8 4.8 6 10.4 7.1 12.4 1.1 1.9 11.5 19.9 23 39.9 11.5 19.9 21 36.4 21 36.5 0 0.1-21.8 0.4-48.3 0.6-26.7 0.2-51.8 0.6-55.9 0.9l-7.5 0.4z"/><path class="a" d="m569.2 437.4c-7-1.4-13.1-4.9-24.7-14.1-6.4-5-20.7-18.8-28.7-27.6-25.9-28.5-40.2-42.1-50.7-48.5-5.3-3.2-12.5-6.3-17.9-7.8l-5.9-1.6-167.4-0.2c-92.1-0.1-167.5-0.3-167.5-0.5 0-0.1 4.2-7.7 9.3-16.7 5.2-9.1 13.6-24 18.7-33.1 5.1-9.1 12.8-22.6 16.9-30 4.1-7.3 7.9-14.1 8.4-15.1l0.9-1.8h66.6 66.5l2.3-1.7c1.1-1 4.3-3.7 7-6.1 5.3-4.7 20.2-16.5 26-20.5 8.4-5.9 13.8-9.4 14.3-9.4 0.8 0 3.5-3.2 3.2-3.8-0.9-2.4-18.3-15.4-27.8-20.8-5-2.8-20.7-10.6-21.5-10.6-0.4 0-1.6-0.4-2.8-0.9-2.4-1-9.2-3.1-15.5-4.6-7.2-1.7-19.3-2.4-28.2-1.6-7.6 0.6-10.1 1.1-19.3 4-5.4 1.6-17.2 7.3-20.3 9.7-1.3 1-2.6 1.9-2.8 1.9-0.7 0-0.3-2.1 0.9-3.8 0.6-1 2.9-4.3 4.9-7.4 3.4-5.2 13.3-17.1 14.6-17.6 0.3-0.1 2.3-1.8 4.4-3.6 2.1-1.9 4.1-3.7 4.5-3.9 1-0.8 8.3-5.6 9.7-6.5 2.3-1.4 13.4-6.7 14-6.7 0.4 0 1.4-0.4 2.4-0.9 2.3-1.1 9.5-3.3 15.2-4.6 18.2-4.1 49.3-3.2 66.4 1.9 1.6 0.5 4 1.1 5.2 1.3 2 0.4 9.9 3 20.2 6.5 2.9 1 5.5 2.2 9.3 4 1 0.5 2.1 0.9 2.4 0.9 0.3 0 3.1 1.2 6.3 2.7 3.1 1.4 8 3.6 10.6 4.9 2.7 1.3 5.4 2.5 5.9 2.8 0.5 0.4 3.9 2.1 7.5 3.9 3.6 1.8 8.3 4.3 10.6 5.6 4.2 2.3 6 2.8 6 1.6 0-1.2-3.9-4.6-18.2-15.9-5.6-4.4-12-9.3-14.4-10.9-2.3-1.5-4.3-2.9-4.5-3.1-0.4-0.5-4.3-3-10.4-6.9-2.7-1.7-5.6-3.6-6.6-4.1-0.9-0.6-2.3-1.5-3.2-1.9-0.9-0.5-3.4-1.9-5.5-3.1-3.4-1.9-10.1-5.3-18.3-9.1-1.8-0.9-5.6-2.4-11.4-4.6-2.1-0.8-5.7-1.8-16.6-4.6-7-1.9-24.9-1.7-31.5 0.2-2.6 0.8-5.1 1.8-5.6 2.2-0.4 0.4-1 0.4-1.2 0.1-0.4-0.6 3.6-4.6 7.7-7.8 4-2.9 10.7-6.3 15.7-7.8 11.9-3.6 12.8-3.7 28.9-3.7 15.5 0 18.1 0.2 32.9 3.3 10 2.1 35.4 10.3 37 12 0.4 0.3 1.2 0.6 1.7 0.6 0.8 0 23.8 11.2 26.7 13 0.5 0.4 5.1 3 10.1 5.9 5 2.9 9.6 5.5 10.1 5.8 0.5 0.4 2.4 1.5 4.1 2.5 1.8 0.9 3.8 2.2 4.7 2.7 0.8 0.6 3.4 2.2 5.9 3.6 2.4 1.5 5.1 3.2 6.1 3.8 0.9 0.6 2.6 1.6 3.6 2.1 1.1 0.6 2.9 1.5 3.9 2.3 1.1 0.7 2.9 1.7 3.9 2.2 1.1 0.6 2.9 1.6 3.9 2.3 1.1 0.7 2.9 1.8 3.9 2.3 1.1 0.6 4.1 2.1 6.5 3.6 12.1 6.8 28.6 14.2 34 15.3 1.2 0.2 2.3 0.7 2.5 1 0.3 0.3 1 0.6 1.8 0.6 1.6 0 9.4 2.2 12.5 3.6 15.8 6.8 26.3 16.2 31.5 28.3 0.9 2 2 4.5 2.4 5.5 0.5 1.1 1.5 4.1 2.2 6.7 4.5 15.7 5.8 20.2 6.9 22.6 2.9 6.8 3.8 8.6 4.3 9.8 0.5 0.7 1.1 1.9 1.5 2.6 1.5 2.9 5.6 8.6 7.2 10.1 3.1 2.8 1.8 3.4-3.3 1.3-13.1-5.5-18.1-8.7-28.3-18-8.8-8-12.5-9.9-17.9-9-3.4 0.5-5.4 1.9-6.5 4.5-2.5 6 5.5 14.4 21 22.2 3 1.5 6 2.9 6.6 3.1 0.5 0.2 2.7 1 4.6 1.7 2 0.8 4.7 1.7 5.9 1.9 6.5 1.6 11.7 2.9 13.7 3.5 1.2 0.4 4.1 1.1 6.5 1.5 5.6 1.1 11.1 2.7 11.9 3.5 0.4 0.4 1.2 0.7 1.7 0.7 0.8 0 15 6.8 17.6 8.5 0.5 0.4 3.7 1.8 6.9 3.3 3.2 1.4 6.6 3 7.6 3.6 0.9 0.5 2.2 0.9 2.8 0.9 0.6 0 1.9 0.4 2.8 0.9 1 0.4 3.4 1.5 5.3 2.2 21.3 7.8 33.3 14.3 42.1 22.5 9.6 8.9 13.1 18.8 10.2 28.9-1.1 4.2-3.1 8.9-4.7 11-0.6 0.7-1.5 2-2 2.9-2 3.1-11.6 12.6-16.8 16.6-7 5.5-14.7 10.6-15.2 10.3-0.4-0.2-0.6-3-0.6-6.3 0-6.4-1.5-13.4-4-18.2-2.9-5.6-11.3-9.7-16.9-8.3-1.5 0.4-3.9 0.9-5.1 1.2-2.4 0.5-10.2 4.2-11.3 5.3-1.4 1.3-2.1 0.5-2.9-3.1-2.2-9.7-8.5-16.4-21.1-22.5-2.7-1.3-5.3-2.4-5.7-2.4-0.5 0-1.7-0.4-2.8-0.9-6.3-2.9-28.5-7.6-41.8-8.9-3.6-0.3-8.4-0.9-10.7-1.2-7.2-1.1-47.3-2.2-57.6-1.7-7.7 0.4-9.7 0.6-9.9 1.5-0.6 1.2 0.3 2.5 11.8 19 2.8 4 15 19.6 17.3 22.2 0.9 0.9 3.1 3.4 5 5.6 3.7 4.4 11 11.7 16.5 16.9 7.2 6.6 21.9 17.1 24.1 17.1 0.4 0 1.3 0.4 1.8 0.9 3 2.6 13 4.6 20.4 4.2 2.8-0.2 5.1-0.2 5.1 0.1 0 0.2-1 2.5-2.3 5-3.1 6.3-3.6 11.3-1.5 15.2 2.2 4.2 5.8 6.3 11.8 7.3 2.8 0.4 5 0.9 5 1.1-0.1 1.1-1.4 2-5.6 4.3-5.6 3-10.4 4.6-15.9 5.6-5.2 0.7-7 0.7-12.4-0.3z"/><path class="b" d="m709.6 947.2c-1.1-1.7-14.4-25-59.3-103.4-17-29.6-31.3-54.7-32-55.8l-1.2-2.1h-67.1l-67-0.1-2.4-4c-6.5-11.4-50.3-87-52-89.6l-1.9-3 122.3-0.2c67.4-0.1 177.5-0.1 244.7 0l122.4 0.2-4.1 7.2c-2.2 3.9-6.2 11-8.8 15.6-2.7 4.7-7.3 13-10.5 18.5-3.2 5.6-11.4 20.2-18.4 32.6l-12.6 22.4-66.2 0.2c-36.4 0.1-66.1 0.3-66.1 0.5 0 0.1 1.4 2.7 3.1 5.6 4.1 6.9 27.8 48.3 32.7 56.9 2 3.5 9.4 16.5 16.4 28.8 7.1 12.2 12.8 22.5 12.8 22.7 0 0.5-26.4 46.6-27.2 47.2-0.2 0.2-13 0.6-28.5 0.8l-28.2 0.5z"/><path class="a" d="m985.1 562.3c-2 0.1-28.8 0-119.2-0.3-34-0.1-63-0.2-64.3-0.2h-2.5l-33.5 58.1-33.6 58h-4.6c-13.1 0-100.5 0.2-103.6 0.3l-3.5 0.1 61-106c33.5-58.3 88.6-153.7 122.3-211.9l61.3-105.9 4.2 7.2c2.4 3.9 6.5 10.8 9.1 15.4 2.8 4.6 7.6 12.8 10.8 18.3 3.3 5.5 11.8 20 19 32.3l13.2 22.1-33 57.4c-18.1 31.6-32.8 57.4-32.6 57.5 0.1 0.1 3 0.2 6.5 0.1 8-0.1 55.6 0 65.5 0.1 4.1 0.1 19 0.2 33.2 0.2 14.1 0 25.9 0.2 26.1 0.2 0.4 0.4 27 46.3 27.2 47.2 0.1 0.4-6 11.7-13.6 25.2l-13.6 24.6z"/><path class="b" d="m159.9 770.1c-1.7-2.8-26.9-45.6-34.1-57.8-3.1-5.2-9-15.3-13.2-22.5-4.2-7.1-7.7-13.2-7.7-13.6 0-0.4 5.1-9.3 11.3-19.9 32.3-55.4 54-93.1 54-93.7 0-0.5-19.2-0.7-65.4-0.7-51.4 0-65.4-0.2-66-0.7-1.3-1.9-27.5-47.6-27.3-48.1 0.1-0.2 6.5-11.3 14.2-24.6l13.9-24.2 93.7 0.1 93.7 0.2 8.1-14c4.4-7.7 8.8-15.1 9.6-16.6 0.8-1.4 12.2-21 25.3-43.6l23.7-41 56-0.3c30.7-0.2 55.9-0.3 56.1-0.2 0.2 0.1-1 2.2-49.4 86.1-20.2 34.9-38.2 66.1-40.1 69.3-1.8 3.3-5 8.8-7.1 12.4-4.4 7.5-5.8 10-8 14-0.9 1.6-2.3 4-3.1 5.2-0.8 1.2-4.4 7.4-7.9 13.7-3.6 6.2-9.2 15.9-12.4 21.4-7.9 13.7-95.7 165.7-97.5 169-0.9 1.4-3 5.2-4.9 8.4-1.9 3.3-5.6 9.7-8.3 14.3-2.6 4.7-5 8.8-5.4 9-0.2 0.4-1.1-0.4-1.8-1.6z"/><path class="c" d="m661.5 433.5c-6.5-1.6-11-3.6-16-7.2-3.3-2.3-5.6-4.8-12.3-13.4-7.1-9.1-8.8-11.2-18-21.3-1.6-1.7-10.5-10.8-19.9-20.1-9.3-9.3-17-17-17-17.1 0-0.3 1.4 0.2 2 0.7 0.3 0.3 1.5 1.1 2.7 2 2.1 1.4 10.5 7.9 10.9 8.4 0.1 0.1 1.7 1.4 3.4 2.8 1.7 1.5 3.9 3.3 4.9 4.1 11.5 10.6 16 13.9 24.4 18.1 6.7 3.4 9.3 4.4 13.4 5.5 1.2 0.3 2.6 0.7 3.1 1 0.5 0.3 1.3 0.5 1.8 0.5 0.5 0 2.1 0.3 3.5 0.7 1.5 0.3 5.6 0.8 9.5 1.1 5.8 0.6 7.9 0.6 13.8 0 4-0.2 7.8-0.8 8.7-1 0.9-0.3 1.6-0.4 1.8-0.3 0.1 0.2-0.9 1.3-2.3 2.8-3.7 3.7-3.7 5.8-0.1 7.6 1.8 1.1 2.2 1.1 14.1 1.3 12 0.4 17.2 0.9 20.9 2.1 4.1 1.5 6.2 2.3 6.8 2.8 0.3 0.4 0.8 0.6 1 0.6 1 0 7.4 6.5 6.8 7-0.1 0.1-1.6-0.4-3.3-1.3-1.8-0.8-3.4-1.5-3.6-1.5-0.3 0-1.1-0.2-1.7-0.6-0.6-0.3-3.4-0.9-6.2-1.3-4.6-0.7-5.3-0.7-10 0-2.9 0.4-5.8 1-6.6 1.2-1.8 0.7-7 2.1-10.4 2.8-3.4 0.7-19 1.1-21.8 0.4-1.2-0.2-3.6-0.6-5.3-0.8-1.7-0.3-3.7-0.6-4.5-0.9-1.7-0.7-2.7 0-1.8 1.1 0.5 0.6 4.1 3.2 4.4 3.2 0.1 0 1.1 0.6 2.2 1.3 2.9 2.1 9 5.7 10.2 6 1.9 0.6 4.2 1.7 4.2 2 0 0.6-11 0.3-13.7-0.3z"/></svg>